<svg xmlns="http://www.w3.org/2000/svg" viewBox="0 0 689.6 187.92"><path d="m207.25 105.24-12.69 9-65.83 46.91c-40.32 28.71-97.41 20.21-127.49-19l41-29.18 12.87-9.17 24.65-17.57A91.74 91.74 0 0 1 121.06 70a92 92 0 0 1 12.62-.78 94.4 94.4 0 0 1 19.68 2.13c3 .66 6.05 1.47 9 2.43a91.56 91.56 0 0 1 44.89 31.46" style="fill:#ff1f30"/><path d="m207.87 36-48.63 34.66-5.24 3.71L129.35 92a92.92 92.92 0 0 1-73.65 14.83A93.7 93.7 0 0 1 27.85 96a90.8 90.8 0 0 1-26-23l78.53-56c40.33-28.71 97.41-20.2 127.49 19" style="fill:#ff1f30"/><path d="M207.25 105.25a91.3 91.3 0 0 0-41.56-30.34l7.16-5.1 33.78-24.07 1.24-9.74-43.93 31.3-4.7 3.34-5.24 3.73L129.34 92a92.9 92.9 0 0 1-73.65 14.87c-1.21-.26-2.42-.54-3.62-.86-1.81-.47-3.61-1-5.39-1.56-1.18-.37-2.36-.78-3.52-1.21s-2.38-.9-3.55-1.38-2.31-1-3.45-1.51A117 117 0 0 1 27.85 96q-2.09-1.23-4.11-2.58l-1.22-.83c-.46-.31-.92-.64-1.38-1L20 90.78c-.43-.31-.87-.64-1.3-1l-.87-.68c-.36-.27-.71-.55-1.05-.83-.5-.41-1-.82-1.48-1.23q-2.2-1.83-4.3-3.85L9.82 82a3 3 0 0 1-.29-.3c-.35-.33-.68-.69-1-1-.59-.6-1.16-1.22-1.72-1.83L5.66 77.6c-.37-.41-.72-.83-1.07-1.25s-.83-1-1.24-1.49-1-1.25-1.5-1.9L.62 82.68a91.6 91.6 0 0 0 41.64 30.37 94.14 94.14 0 0 0 83.39 26.35l.87-.16a92 92 0 0 0 15.83-4.57l57.28-24-5.07 3.61-34.22 24.38-31.61 22.52c-40.33 28.73-97.41 20.21-127.5-19L0 151.9c30.08 39.22 87.17 47.73 127.49 19L206 115l1.22-9.73-19.74 14.07Z" style="fill:#9f1d21"/><path d="M261.23 138.88a96 96 0 0 1-16.65-1.34 46.8 46.8 0 0 1-12.67-3.9l4.1-19.4a69.5 69.5 0 0 0 13 4.39 60.4 60.4 0 0 0 14 1.7q8.51 0 13-1.56t5.67-6.8a7 7 0 0 0-.85-5.67q-1.56-2.11-5.88-3.75c-2.88-1.09-6.78-2.38-11.69-3.9Q250 94.56 245.72 88.53t-2.06-16.79a30.4 30.4 0 0 1 13.67-20q10.85-6.94 29.11-7A92.5 92.5 0 0 1 301.6 46a70 70 0 0 1 11.62 2.76L309 68.34a56.5 56.5 0 0 0-11.55-3.54 61 61 0 0 0-11.68-1.14 47.8 47.8 0 0 0-12.68 1.42 8.19 8.19 0 0 0-6.17 6.52 6 6 0 0 0 .71 4.74c.85 1.18 2.58 2.25 5.17 3.19s6.17 2.08 10.7 3.4q10.62 3 15.65 7.15a16.94 16.94 0 0 1 6.16 9.64A30 30 0 0 1 305 112q-2.55 12-13.53 19.48t-30.24 7.4m73.77 0q-11.47 0-16.43-6.37t-2.69-17.57l5.81-27.34h-9.07l3.68-17.28h9.07l3-14 24.09-6.09-4.25 20.11h16.29l-4.68 17.26h-15.3l-5.38 25.79q-1 4.81.35 6.73t7 1.91a31 31 0 0 0 9.06-1.42l-3.26 15.44a47.3 47.3 0 0 1-17.29 2.83m24.54-1.41 14.16-67.15h21.68l-.57 6.24a67.5 67.5 0 0 1 11.9-4.89 62 62 0 0 1 13.6-2.76l-3.54 17.14c-2.55.28-5.39.73-8.5 1.34s-6.12 1.35-9 2.2a58 58 0 0 0-7.43 2.69l-9.49 45.19Zm85.28 1.41q-18.13 0-26-9t-4.32-26Q418 87 428.67 78t31-9.06q18.56 0 26.35 9.06t4.25 25.93q-3.54 17-14.17 26t-31.28 8.95m3.82-17.88q7.94 0 12.18-4t6.24-13.17q2-9.21-.57-13.18t-10.48-4q-7.8 0-12 4t-6.24 13.18q-2 9.21.57 13.17t10.3 4m40.66 16.47 14.16-67.15h21.11l-.57 6A58.6 58.6 0 0 1 535.4 71a38.6 38.6 0 0 1 12.54-2q6.79 0 10.2 2a11.26 11.26 0 0 1 4.86 5.7 56.7 56.7 0 0 1 11.68-5.6 43.2 43.2 0 0 1 14.24-2.19q11.76 0 15.87 6.58t1.7 18.06l-9.21 43.92h-22.57l8.64-41.22c.76-3.69.55-6.35-.63-8s-3.52-2.48-7-2.48a17.9 17.9 0 0 0-6.66 1.35 20.3 20.3 0 0 0-6.06 3.74 19 19 0 0 1-.22 3c-.14.94-.35 2.08-.63 3.4l-8.5 40.23h-21.29L541.14 96q1.14-5.1-.14-7.65t-6.23-2.55a17 17 0 0 0-7.09 1.63 24.1 24.1 0 0 0-6.51 4.46l-9.63 45.62Zm142.78 1.41q-13.87 0-20.25-8.07t-3-24.22A59.4 59.4 0 0 1 616.64 87a39.44 39.44 0 0 1 13.82-13.25 38.8 38.8 0 0 1 19.62-4.81 27 27 0 0 1 9.34 1.34 24 24 0 0 1 6.66 3.9l.71-3.83h22.81l-14.17 67.15h-19.69l-.14-5.67q-9.92 7.05-23.52 7.05M643 122.31a21.72 21.72 0 0 0 13.88-5.1l5.67-26.91q-2.84-4.68-10.06-4.68-8.07 0-13 5t-7.37 15.94q-1.83 8.93.64 12.32t10.24 3.43" style="fill:#fff"/></svg>